<?xml version="1.0" encoding="UTF-8" standalone="no"?>
<!-- Created with Inkscape (http://www.inkscape.org/) -->

<svg
   version="1.1"
   id="svg2"
   xml:space="preserve"
   width="560.96399"
   height="380.82532"
   viewBox="0 0 560.96399 380.82532"
   xmlns="http://www.w3.org/2000/svg"
   xmlns:svg="http://www.w3.org/2000/svg"><defs
     id="defs6" /><g
     id="g8"
     transform="matrix(1.3333333,0,0,-1.3333333,0,380.82533)"><g
       id="g10"
       transform="translate(45.554,244.559)"><g
         id="g12"><g
           id="g14"><g
             id="g16"><g
               id="g18"><path
                 d="m 35.70047,6.77985 h -71.40094 c -2.20094,0 -3.98511,-1.78417 -3.98511,-3.98511 v -5.58948 c 0,-2.20094 1.78417,-3.98511 3.98511,-3.98511 h 71.40094 c 2.20094,0 3.98511,1.78417 3.98511,3.98511 v 5.58948 c 0,2.20094 -1.78417,3.98511 -3.98511,3.98511 z"
                 style="fill:#ffffff;fill-opacity:1;fill-rule:nonzero;stroke:#000000;stroke-width:0.3985;stroke-linecap:butt;stroke-linejoin:miter;stroke-miterlimit:10;stroke-dasharray:none;stroke-opacity:1"
                 id="path20" /></g><g
               id="g22"
               transform="translate(-12.685,-3.459)"><g
                 id="g24"><g
                   id="g26"
                   transform="translate(-32.869,-241.1)"><text
                     transform="matrix(1,0,0,-1,32.869,241.1)"
                     style="font-variant:normal;font-weight:normal;font-size:9.9626px;font-family:CMBX10;-inkscape-font-specification:CMBX10;writing-mode:lr-tb;fill:#000000;fill-opacity:1;fill-rule:nonzero;stroke:none"
                     id="text30"><tspan
                       x="0 8.6614847 11.843539 15.025594 20.117477"
                       y="0"
                       id="tspan28">Alice</tspan></text><g
                     id="g32"
                     transform="translate(32.869,241.1)" /></g></g><g
                 id="g34"
                 transform="translate(12.685,3.459)" /></g></g><g
             id="g36"><g
               id="g38"><path
                 d="m 200.5106,6.77985 h -71.40095 c -2.20095,0 -3.98511,-1.78417 -3.98511,-3.98511 v -5.58948 c 0,-2.20094 1.78416,-3.98511 3.98511,-3.98511 h 71.40095 c 2.20095,0 3.98511,1.78417 3.98511,3.98511 v 5.58948 c 0,2.20094 -1.78416,3.98511 -3.98511,3.98511 z"
                 style="fill:#ffffff;fill-opacity:1;fill-rule:nonzero;stroke:#000000;stroke-width:0.3985;stroke-linecap:butt;stroke-linejoin:miter;stroke-miterlimit:10;stroke-dasharray:none;stroke-opacity:1"
                 id="path40" /></g><g
               id="g42"
               transform="translate(154.686,-3.459)"><g
                 id="g44"><g
                   id="g46"
                   transform="translate(-200.24,-241.1)"><text
                     transform="matrix(1,0,0,-1,200.24,241.1)"
                     style="font-variant:normal;font-weight:normal;font-size:9.9626px;font-family:CMBX10;-inkscape-font-specification:CMBX10;writing-mode:lr-tb;fill:#000000;fill-opacity:1;fill-rule:nonzero;stroke:none"
                     id="text50"><tspan
                       x="0 8.150403 13.878898"
                       y="0"
                       id="tspan48">Bob</tspan></text><g
                     id="g52"
                     transform="translate(200.24,241.1)" /></g></g><g
                 id="g54"
                 transform="translate(-154.686,3.459)" /></g></g><g
             id="g56"><g
               id="g58"><path
                 d="m 365.32074,6.77985 h -71.40096 c -2.20094,0 -3.9851,-1.78417 -3.9851,-3.98511 v -5.58948 c 0,-2.20094 1.78416,-3.98511 3.9851,-3.98511 h 71.40096 c 2.20094,0 3.98511,1.78417 3.98511,3.98511 v 5.58948 c 0,2.20094 -1.78417,3.98511 -3.98511,3.98511 z"
                 style="fill:#ffffff;fill-opacity:1;fill-rule:nonzero;stroke:#000000;stroke-width:0.3985;stroke-linecap:butt;stroke-linejoin:miter;stroke-miterlimit:10;stroke-dasharray:none;stroke-opacity:1"
                 id="path60" /></g><g
               id="g62"
               transform="translate(311.344,-3.459)"><g
                 id="g64"><g
                   id="g66"
                   transform="translate(-356.898,-241.1)"><text
                     transform="matrix(1,0,0,-1,356.898,241.1)"
                     style="font-variant:normal;font-weight:normal;font-size:9.9626px;font-family:CMBX10;-inkscape-font-specification:CMBX10;writing-mode:lr-tb;fill:#000000;fill-opacity:1;fill-rule:nonzero;stroke:none"
                     id="text70"><tspan
                       x="0 8.2749357 14.64004 20.209133 24.927422 28.109476 31.291531"
                       y="0"
                       id="tspan68">Charlie</tspan></text><g
                     id="g72"
                     transform="translate(356.898,241.1)" /></g></g><g
                 id="g74"
                 transform="translate(-311.344,3.459)" /></g></g><g
             id="g76"><g
               id="g78"><path
                 d="m 200.5106,-106.39223 h -71.40095 c -2.20095,0 -3.98511,-1.78416 -3.98511,-3.9851 v -5.50649 c 0,-2.20094 1.78416,-3.98511 3.98511,-3.98511 h 71.40095 c 2.20095,0 3.98511,1.78417 3.98511,3.98511 v 5.50649 c 0,2.20094 -1.78416,3.9851 -3.98511,3.9851 z"
                 style="fill:#ffffff;fill-opacity:1;fill-rule:nonzero;stroke:#000000;stroke-width:0.3985;stroke-linecap:butt;stroke-linejoin:miter;stroke-miterlimit:10;stroke-dasharray:none;stroke-opacity:1"
                 id="path80" /></g><g
               id="g82"
               transform="translate(148.791,-116.547)"><g
                 id="g84"><g
                   id="g86"
                   transform="translate(-194.345,-128.012)"><text
                     transform="matrix(1,0,0,-1,194.345,128.012)"
                     style="font-variant:normal;font-weight:normal;font-size:9.9626px;font-family:CMBX10;-inkscape-font-specification:CMBX10;writing-mode:lr-tb;fill:#000000;fill-opacity:1;fill-rule:nonzero;stroke:none"
                     id="text90"><tspan
                       x="0 6.3651052 11.616391 16.334679 22.062178 27.313463"
                       y="0"
                       id="tspan88">Server</tspan></text><g
                     id="g92"
                     transform="translate(194.345,128.012)" /></g></g><g
                 id="g94"
                 transform="translate(-148.791,116.547)" /></g></g><g
             id="g96"><path
               d="m 28.53696,7.6495 c 39.96536,10.70868 67.77084,10.70868 107.7362,0"
               style="fill:none;stroke:#bd2c00;stroke-width:0.79701;stroke-linecap:butt;stroke-linejoin:miter;stroke-miterlimit:10;stroke-dasharray:none;stroke-opacity:1"
               id="path98" /><g
               id="g100"
               transform="matrix(-0.96591,-0.25882,0.25882,-0.96591,28.53696,7.6495)"><g
                 id="g102"><path
                   d="M 2.59026,0 -1.55415,2.0722 0,0 -1.55415,-2.0722"
                   style="fill:#bd2c00;fill-opacity:1;fill-rule:nonzero;stroke:none"
                   id="path104" /></g></g><g
               id="g106"
               transform="matrix(0.96591,-0.25882,0.25882,0.96591,136.27316,7.6495)"><g
                 id="g108"><path
                   d="M 2.59026,0 -1.55415,2.0722 0,0 -1.55415,-2.0722"
                   style="fill:#bd2c00;fill-opacity:1;fill-rule:nonzero;stroke:none"
                   id="path110" /></g></g></g><g
             id="g112"><path
               d="m 28.537,7.64943 c 102.04671,27.34341 170.49954,27.34341 272.54625,0"
               style="fill:none;stroke:#bd2c00;stroke-width:0.79701;stroke-linecap:butt;stroke-linejoin:miter;stroke-miterlimit:10;stroke-dasharray:none;stroke-opacity:1"
               id="path114" /><g
               id="g116"
               transform="matrix(-0.96593,-0.25879,0.25879,-0.96593,28.537,7.64943)"><g
                 id="g118"><path
                   d="M 2.59026,0 -1.55415,2.0722 0,0 -1.55415,-2.0722"
                   style="fill:#bd2c00;fill-opacity:1;fill-rule:nonzero;stroke:none"
                   id="path120" /></g></g><g
               id="g122"
               transform="matrix(0.96593,-0.25879,0.25879,0.96593,301.08325,7.64943)"><g
                 id="g124"><path
                   d="M 2.59026,0 -1.55415,2.0722 0,0 -1.55415,-2.0722"
                   style="fill:#bd2c00;fill-opacity:1;fill-rule:nonzero;stroke:none"
                   id="path126" /></g></g></g><g
             id="g128"><path
               d="m 193.3471,7.6495 c 39.96537,10.70868 67.77084,10.70868 107.7362,0"
               style="fill:none;stroke:#bd2c00;stroke-width:0.79701;stroke-linecap:butt;stroke-linejoin:miter;stroke-miterlimit:10;stroke-dasharray:none;stroke-opacity:1"
               id="path130" /><g
               id="g132"
               transform="matrix(-0.96591,-0.25882,0.25882,-0.96591,193.3471,7.6495)"><g
                 id="g134"><path
                   d="M 2.59026,0 -1.55415,2.0722 0,0 -1.55415,-2.0722"
                   style="fill:#bd2c00;fill-opacity:1;fill-rule:nonzero;stroke:none"
                   id="path136" /></g></g><g
               id="g138"
               transform="matrix(0.96591,-0.25882,0.25882,0.96591,301.0833,7.6495)"><g
                 id="g140"><path
                   d="M 2.59026,0 -1.55415,2.0722 0,0 -1.55415,-2.0722"
                   style="fill:#bd2c00;fill-opacity:1;fill-rule:nonzero;stroke:none"
                   id="path142" /></g></g></g><g
             id="g144"><path
               d="m 5.95729,-6.9791 c 42.48848,-51.49305 76.68443,-75.86381 136.80052,-98.30793"
               style="fill:none;stroke:#4078c0;stroke-width:0.79701;stroke-linecap:butt;stroke-linejoin:miter;stroke-miterlimit:10;stroke-dasharray:none;stroke-opacity:1"
               id="path146" /><g
               id="g148"
               transform="matrix(0.93678,-0.34975,0.34975,0.93678,142.75781,-105.28703)"><g
                 id="g150"><path
                   d="M 2.59026,0 -1.55415,2.0722 0,0 -1.55415,-2.0722"
                   style="fill:#4078c0;fill-opacity:1;fill-rule:nonzero;stroke:none"
                   id="path152" /></g></g></g><g
             id="g154"><path
               d="m 162.94171,-6.9791 c -10.01025,-37.37254 -10.00598,-61.84315 -0.65948,-96.71194"
               style="fill:none;stroke:#4078c0;stroke-width:0.79701;stroke-linecap:butt;stroke-linejoin:miter;stroke-miterlimit:10;stroke-dasharray:none;stroke-opacity:1"
               id="path156" /><g
               id="g158"
               transform="matrix(0.2589,-0.9659,0.9659,0.2589,162.28221,-103.69104)"><g
                 id="g160"><path
                   d="M 2.59026,0 -1.55415,2.0722 0,0 -1.55415,-2.0722"
                   style="fill:#4078c0;fill-opacity:1;fill-rule:nonzero;stroke:none"
                   id="path162" /></g></g></g><g
             id="g164"><path
               d="M 309.87706,-6.9791 C 247.37689,-30.33376 213.1814,-54.71715 172.37984,-104.1947"
               style="fill:none;stroke:#4078c0;stroke-width:0.79701;stroke-linecap:butt;stroke-linejoin:miter;stroke-miterlimit:10;stroke-dasharray:none;stroke-opacity:1"
               id="path166" /><g
               id="g168"
               transform="matrix(-0.63617,-0.77145,0.77145,-0.63617,172.37985,-104.1947)"><g
                 id="g170"><path
                   d="M 2.59026,0 -1.55415,2.0722 0,0 -1.55415,-2.0722"
                   style="fill:#4078c0;fill-opacity:1;fill-rule:nonzero;stroke:none"
                   id="path172" /></g></g></g><g
             id="g174"><path
               d="M 157.74625,-106.19298 C 109.56985,-58.24841 76.9945,-35.55556 17.67592,-8.06812"
               style="fill:none;stroke:#6cc644;stroke-width:0.79701;stroke-linecap:butt;stroke-linejoin:miter;stroke-miterlimit:10;stroke-dasharray:none;stroke-opacity:1"
               id="path176" /><g
               id="g178"
               transform="matrix(-0.9073,0.42043,-0.42043,-0.9073,17.67592,-8.06813)"><g
                 id="g180"><path
                   d="M 2.59026,0 -1.55415,2.0722 0,0 -1.55415,-2.0722"
                   style="fill:#6cc644;fill-opacity:1;fill-rule:nonzero;stroke:none"
                   id="path182" /></g></g></g><g
             id="g184"><path
               d="m 166.03322,-106.19298 c 6.72121,38.10201 6.72272,61.11089 0.45682,96.66295"
               style="fill:none;stroke:#6cc644;stroke-width:0.79701;stroke-linecap:butt;stroke-linejoin:miter;stroke-miterlimit:10;stroke-dasharray:none;stroke-opacity:1"
               id="path186" /><g
               id="g188"
               transform="matrix(-0.17354,0.98482,-0.98482,-0.17354,166.49004,-9.53003)"><g
                 id="g190"><path
                   d="M 2.59026,0 -1.55415,2.0722 0,0 -1.55415,-2.0722"
                   style="fill:#6cc644;fill-opacity:1;fill-rule:nonzero;stroke:none"
                   id="path192" /></g></g></g><g
             id="g194"><path
               d="m 180.04477,-106.19298 c 61.69542,28.57582 94.26763,51.26081 140.6331,97.38712"
               style="fill:none;stroke:#6cc644;stroke-width:0.79701;stroke-linecap:butt;stroke-linejoin:miter;stroke-miterlimit:10;stroke-dasharray:none;stroke-opacity:1"
               id="path196" /><g
               id="g198"
               transform="matrix(0.70891,0.70525,-0.70525,0.70891,320.67786,-8.80586)"><g
                 id="g200"><path
                   d="M 2.59026,0 -1.55415,2.0722 0,0 -1.55415,-2.0722"
                   style="fill:#6cc644;fill-opacity:1;fill-rule:nonzero;stroke:none"
                   id="path202" /></g></g></g><g
             id="g204"><path
               d="m 42.4751,0 h 79.85992"
               style="fill:none;stroke:#6e5494;stroke-width:0.79701;stroke-linecap:butt;stroke-linejoin:miter;stroke-miterlimit:10;stroke-dasharray:none;stroke-opacity:1"
               id="path206" /><g
               id="g208"
               transform="rotate(180,21.23755,0)"><g
                 id="g210"><path
                   d="M 2.59026,0 -1.55415,2.0722 0,0 -1.55415,-2.0722"
                   style="fill:#6e5494;fill-opacity:1;fill-rule:nonzero;stroke:none"
                   id="path212" /></g></g><g
               id="g214"
               transform="translate(122.33502)"><g
                 id="g216"><path
                   d="M 2.59026,0 -1.55415,2.0722 0,0 -1.55415,-2.0722"
                   style="fill:#6e5494;fill-opacity:1;fill-rule:nonzero;stroke:none"
                   id="path218" /></g></g></g><g
             id="g220"><path
               d="m 207.28523,0 h 79.85993"
               style="fill:none;stroke:#6e5494;stroke-width:0.79701;stroke-linecap:butt;stroke-linejoin:miter;stroke-miterlimit:10;stroke-dasharray:none;stroke-opacity:1"
               id="path222" /><g
               id="g224"
               transform="rotate(180,103.64262,0)"><g
                 id="g226"><path
                   d="M 2.59026,0 -1.55415,2.0722 0,0 -1.55415,-2.0722"
                   style="fill:#6e5494;fill-opacity:1;fill-rule:nonzero;stroke:none"
                   id="path228" /></g></g><g
               id="g230"
               transform="translate(287.14516)"><g
                 id="g232"><path
                   d="M 2.59026,0 -1.55415,2.0722 0,0 -1.55415,-2.0722"
                   style="fill:#6e5494;fill-opacity:1;fill-rule:nonzero;stroke:none"
                   id="path234" /></g></g></g><g
             id="g236"><g
               id="g238"><path
                 d="m 0,-9.56937 c 0,-164.51533 329.62027,-164.51533 329.62027,0"
                 style="fill:none;stroke:#6e5494;stroke-width:0.79701;stroke-linecap:butt;stroke-linejoin:miter;stroke-miterlimit:10;stroke-dasharray:none;stroke-opacity:1"
                 id="path240" /><g
                 id="g242"
                 transform="rotate(90,4.784685,-4.784685)"><g
                   id="g244"><path
                     d="M 2.59026,0 -1.55415,2.0722 0,0 -1.55415,-2.0722"
                     style="fill:#6e5494;fill-opacity:1;fill-rule:nonzero;stroke:none"
                     id="path246" /></g></g><g
                 id="g248"
                 transform="rotate(90,169.59482,160.02545)"><g
                   id="g250"><path
                     d="M 2.59026,0 -1.55415,2.0722 0,0 -1.55415,-2.0722"
                     style="fill:#6e5494;fill-opacity:1;fill-rule:nonzero;stroke:none"
                     id="path252" /></g></g></g></g><g
             id="g254"><g
               id="g256"><path
                 d="M 334.2265,-148.61424 H -4.60623 c -2.20094,0 -3.98511,-1.78416 -3.98511,-3.98511 v -82.10912 c 0,-2.20094 1.78417,-3.9851 3.98511,-3.9851 H 334.2265 c 2.20094,0 3.98511,1.78416 3.98511,3.9851 v 82.10912 c 0,2.20095 -1.78417,3.98511 -3.98511,3.98511 z"
                 style="fill:#f2f2f2;fill-opacity:1;fill-rule:nonzero;stroke:#000000;stroke-width:0.3985;stroke-linecap:butt;stroke-linejoin:miter;stroke-miterlimit:10;stroke-dasharray:none;stroke-opacity:1"
                 id="path258" /></g><g
               id="g260"
               transform="translate(-5.271,-151.933)"><g
                 id="g262"><g
                   id="g264"
                   transform="translate(-40.283,-92.626)"><text
                     transform="matrix(1,0,0,-1,55.602,77.682)"
                     style="font-variant:normal;font-weight:normal;font-size:8.9664px;font-family:SFRM0900;-inkscape-font-specification:SFRM0900;writing-mode:lr-tb;fill:#000000;fill-opacity:1;fill-rule:nonzero;stroke:none"
                     id="text268"><tspan
                       x="0"
                       y="0"
                       id="tspan266">•</tspan></text><text
                     transform="matrix(1,0,0,-1,65.19,77.682)"
                     style="font-variant:normal;font-weight:normal;font-size:8.9664px;font-family:CMBX9;-inkscape-font-specification:CMBX9;writing-mode:lr-tb;fill:#bd2c00;fill-opacity:1;fill-rule:nonzero;stroke:none"
                     id="text272"><tspan
                       x="0 5.8945112 10.020848 15.178322 20.48374 28.419004 33.724422"
                       y="0"
                       id="tspan270">Stage1:</tspan></text><text
                     transform="matrix(1,0,0,-1,106.473,77.682)"
                     style="font-variant:normal;font-weight:normal;font-size:8.9664px;font-family:CMR9;-inkscape-font-specification:CMR9;writing-mode:lr-tb;fill:#000000;fill-opacity:1;fill-rule:nonzero;stroke:none"
                     id="text276"><tspan
                       x="0 6.6557589 11.263592 13.823499 16.383406 20.482843 24.578695 28.162565 30.722473 35.325821 42.500736 49.666683 53.766121 61.696007 68.927406 73.026848 78.14666 82.246094 85.850594 90.45842 94.04229 96.602203 101.21003 106.32985"
                       y="0"
                       id="tspan274">CollectiveKeyGeneration.</tspan></text><text
                     transform="matrix(1,0,0,-1,55.602,62.738)"
                     style="font-variant:normal;font-weight:normal;font-size:8.9664px;font-family:SFRM0900;-inkscape-font-specification:SFRM0900;writing-mode:lr-tb;fill:#000000;fill-opacity:1;fill-rule:nonzero;stroke:none"
                     id="text280"><tspan
                       x="0"
                       y="0"
                       id="tspan278">•</tspan></text><text
                     transform="matrix(1,0,0,-1,65.19,62.738)"
                     style="font-variant:normal;font-weight:normal;font-size:8.9664px;font-family:CMBX9;-inkscape-font-specification:CMBX9;writing-mode:lr-tb;fill:#4078c0;fill-opacity:1;fill-rule:nonzero;stroke:none"
                     id="text284"><tspan
                       x="0 5.8945112 10.020848 15.178322 20.48374 28.419004 33.724422"
                       y="0"
                       id="tspan282">Stage2:</tspan></text><text
                     transform="matrix(1,0,0,-1,106.473,62.738)"
                     style="font-variant:normal;font-weight:normal;font-size:8.9664px;font-family:CMR9;-inkscape-font-specification:CMR9;writing-mode:lr-tb;fill:#000000;fill-opacity:1;fill-rule:nonzero;stroke:none"
                     id="text290"><tspan
                       x="0 6.2711 11.390915 15.486766 19.091259 23.954634 29.07445 32.658318 35.218227 40.338039 48.012383 54.283482 57.887974 60.447884 64.800171 69.408005 72.991875 80.166786 87.205414 91.813248 95.397118 103.07146 112.54177 115.10168 118.68555 126.88084 136.85774 143.5135 148.12134 155.80106 163.48079 168.08862 176.28391 182.55501 187.67482 192.79463 195.35454 197.91444 205.07681 212.24275 216.34219 224.28105 234.51529 239.63512 243.73454 248.85435 253.97418 256.53409 261.6539"
                       y="0"
                       id="tspan286">EncryptingPrivateDataWithACommonPublicKey&amp;Sending</tspan><tspan
                       x="-41.283001 -37.956467 -31.306087 -25.412472 -17.738131 -11.082372 -5.9625573 1.2123562 6.3321705 10.431608 14.036101 18.639452 22.73889 26.343382"
                       y="10.959"
                       id="tspan288">ItToTheServer.</tspan></text><text
                     transform="matrix(1,0,0,-1,55.602,36.835)"
                     style="font-variant:normal;font-weight:normal;font-size:8.9664px;font-family:SFRM0900;-inkscape-font-specification:SFRM0900;writing-mode:lr-tb;fill:#000000;fill-opacity:1;fill-rule:nonzero;stroke:none"
                     id="text294"><tspan
                       x="0"
                       y="0"
                       id="tspan292">•</tspan></text><text
                     transform="matrix(1,0,0,-1,65.19,36.835)"
                     style="font-variant:normal;font-weight:normal;font-size:8.9664px;font-family:CMBX9;-inkscape-font-specification:CMBX9;writing-mode:lr-tb;fill:#6cc644;fill-opacity:1;fill-rule:nonzero;stroke:none"
                     id="text298"><tspan
                       x="0 5.8945112 10.020848 15.178322 20.48374 28.419004 33.724422"
                       y="0"
                       id="tspan296">Stage3:</tspan></text><text
                     transform="matrix(1,0,0,-1,106.473,36.835)"
                     style="font-variant:normal;font-weight:normal;font-size:8.9664px;font-family:CMR9;-inkscape-font-specification:CMR9;writing-mode:lr-tb;fill:#000000;fill-opacity:1;fill-rule:nonzero;stroke:none"
                     id="text304"><tspan
                       x="0 6.2711 9.8755932 14.734485 18.830338 22.929775 26.564753 30.199732 32.75964 37.879452 45.562763 52.601387 57.209217 60.793087 68.46743 75.63517 83.83046 90.486221 95.606033 102.77198 107.89179 111.99123 115.59573 120.20804 124.30748 130.97849 141.22169 148.00478 152.10422 155.68808 160.80791 164.4124 169.53221 172.09212 177.21193 184.88628 191.66936 195.76878 199.40376 204.52359 207.0835 210.66736 217.37781 223.26247 230.94577 237.60153 242.72134"
                       y="0"
                       id="tspan300">ProcessingDataOnTheServer&amp;ReturningResultsToThe</tspan><tspan
                       x="-41.283001 -35.271927 -30.664093 -27.059599 -23.475729 -20.915823 -16.816385 -13.181406"
                       y="10.959"
                       id="tspan302">Parties.</tspan></text><text
                     transform="matrix(1,0,0,-1,55.602,10.932)"
                     style="font-variant:normal;font-weight:normal;font-size:8.9664px;font-family:SFRM0900;-inkscape-font-specification:SFRM0900;writing-mode:lr-tb;fill:#000000;fill-opacity:1;fill-rule:nonzero;stroke:none"
                     id="text308"><tspan
                       x="0"
                       y="0"
                       id="tspan306">•</tspan></text><text
                     transform="matrix(1,0,0,-1,65.19,10.932)"
                     style="font-variant:normal;font-weight:normal;font-size:8.9664px;font-family:CMBX9;-inkscape-font-specification:CMBX9;writing-mode:lr-tb;fill:#6e5494;fill-opacity:1;fill-rule:nonzero;stroke:none"
                     id="text312"><tspan
                       x="0 5.8945112 10.020848 15.178322 20.48374 28.419004 33.724422"
                       y="0"
                       id="tspan310">Stage4:</tspan></text><text
                     transform="matrix(1,0,0,-1,106.473,10.932)"
                     style="font-variant:normal;font-weight:normal;font-size:8.9664px;font-family:CMR9;-inkscape-font-specification:CMR9;writing-mode:lr-tb;fill:#000000;fill-opacity:1;fill-rule:nonzero;stroke:none"
                     id="text316"><tspan
                       x="0 6.6557589 11.263592 13.823499 16.383406 20.482843 24.578695 28.162565 30.722473 35.325821 42.500736 49.53936 53.638798 57.73465 61.339142 66.202515 71.322334 74.906204 77.46611 82.073944 87.193756"
                       y="0"
                       id="tspan314">CollectiveDecryption.</tspan></text><g
                     id="g318"
                     transform="translate(40.283,92.626)" /></g></g><g
                 id="g320"
                 transform="translate(5.271,151.933)" /></g></g></g></g></g></g></svg>
